<svg width="24" height="16" viewBox="0 0 24 16" fill="none" xmlns="http://www.w3.org/2000/svg">
<path d="M2.15 0.317591C1.99866 0.317776 1.84733 0.318776 1.696 0.320591C1.546 0.325591 1.393 0.333591 1.244 0.360591C1.01882 0.396176 0.805306 0.484717 0.621024 0.61893C0.436743 0.753142 0.286961 0.929191 0.184 1.13259C0.114 1.27059 0.07 1.41059 0.044 1.56259C0.016 1.71059 0.007 1.86259 0.004 2.01259C0.00195281 2.08224 0.000619407 2.15191 0 2.22159L0 13.7786C0 13.8486 0.002 13.9166 0.003 13.9856C0.007 14.1356 0.016 14.2886 0.043 14.4376C0.07 14.5876 0.115 14.7286 0.185 14.8666C0.322895 15.1381 0.543517 15.3587 0.815 15.4966C0.953 15.5666 1.093 15.6116 1.245 15.6386C1.393 15.6656 1.545 15.6746 1.695 15.6786L1.903 15.6816H22.097L22.304 15.6786C22.454 15.6746 22.607 15.6656 22.756 15.6386C22.906 15.6116 23.047 15.5676 23.184 15.4976C23.4562 15.3598 23.6772 15.1388 23.815 14.8666C23.885 14.7286 23.93 14.5886 23.956 14.4366C23.983 14.2886 23.992 14.1366 23.996 13.9866C23.998 13.9166 23.999 13.8486 23.999 13.7786L24 13.5326V2.22059C24 2.15059 23.998 2.08259 23.996 2.01359C23.9941 1.86213 23.9807 1.71103 23.956 1.56159C23.9082 1.26045 23.7663 0.982138 23.5508 0.766438C23.3353 0.550738 23.0571 0.408688 22.756 0.360591C22.6065 0.335949 22.4555 0.322578 22.304 0.320591C22.153 0.316317 22.002 0.315317 21.851 0.317591H2.15ZM2.15 0.829591H22.092C22.158 0.829591 22.223 0.831591 22.289 0.832591C22.404 0.836591 22.539 0.842591 22.664 0.864591C22.773 0.884591 22.864 0.914591 22.951 0.958591C23.1264 1.04764 23.269 1.19018 23.358 1.36559C23.4038 1.45624 23.4355 1.55336 23.452 1.65359C23.474 1.77659 23.48 1.91159 23.483 2.02759C23.485 2.09259 23.486 2.15759 23.486 2.22459V13.7766C23.486 13.8416 23.486 13.9066 23.483 13.9726C23.48 14.0876 23.474 14.2226 23.451 14.3476C23.4294 14.4947 23.3726 14.6345 23.2856 14.7551C23.1986 14.8758 23.0838 14.9737 22.951 15.0406C22.8609 15.0861 22.7645 15.1178 22.665 15.1346C22.5416 15.1542 22.4169 15.1649 22.292 15.1666L22.092 15.1696H1.906C1.84 15.1696 1.773 15.1676 1.71 15.1666C1.58439 15.165 1.45907 15.1543 1.335 15.1346C1.226 15.1146 1.135 15.0846 1.047 15.0406C0.871582 14.9519 0.729268 14.8092 0.641 14.6336C0.595308 14.5429 0.563616 14.4458 0.547 14.3456C0.52714 14.2222 0.516444 14.0975 0.515 13.9726C0.513659 13.9069 0.512992 13.8413 0.513 13.7756V2.22359C0.513 2.15859 0.513 2.09259 0.515 2.02659C0.519 1.91259 0.525 1.77859 0.547 1.65159C0.567 1.54359 0.597 1.45259 0.641 1.36459C0.730102 1.18946 0.872655 1.04726 1.048 0.958591C1.13853 0.913327 1.23523 0.881653 1.335 0.864591C1.46 0.842591 1.595 0.835591 1.71 0.832591C1.775 0.830591 1.841 0.830591 1.906 0.829591H2.15ZM6.86 4.52959C6.56 4.54559 6.192 4.72859 5.98 4.98559C5.789 5.20559 5.62 5.56559 5.664 5.90359C6.002 5.93359 6.339 5.73459 6.552 5.48559C6.757 5.22759 6.897 4.88259 6.86 4.53059V4.52959ZM9.067 4.94959V10.4426H9.919V8.56559H11.099C12.177 8.56559 12.934 7.82659 12.934 6.75359C12.934 5.68359 12.192 4.94859 11.126 4.94859L9.067 4.94959ZM9.919 5.66859H10.901C11.64 5.66859 12.062 6.06459 12.062 6.75759C12.062 7.44959 11.64 7.84959 10.898 7.84959H9.919V5.66859ZM6.765 5.96859C6.315 5.97859 5.935 6.24859 5.715 6.24859C5.48 6.24859 5.122 5.98459 4.734 5.99159C4.48161 5.99789 4.23527 6.07016 4.01947 6.20121C3.80368 6.33227 3.62597 6.51754 3.504 6.73859C2.977 7.64659 3.365 8.99359 3.878 9.73359C4.127 10.0996 4.427 10.5026 4.822 10.4876C5.195 10.4736 5.342 10.2456 5.795 10.2456C6.249 10.2456 6.381 10.4876 6.775 10.4806C7.185 10.4736 7.442 10.1146 7.69 9.74759C7.976 9.33059 8.093 8.92759 8.1 8.90659C8.093 8.89859 7.31 8.59859 7.303 7.69759C7.295 6.94359 7.918 6.58459 7.947 6.56259C7.595 6.04259 7.047 5.98459 6.857 5.96959C6.82637 5.96767 6.79568 5.968 6.765 5.96859ZM14.969 6.36559C13.979 6.36559 13.363 6.89859 13.317 7.62159H14.094C14.166 7.26359 14.463 7.03559 14.939 7.03559C15.441 7.03559 15.742 7.30159 15.742 7.74659V8.05559L14.645 8.11959C13.694 8.17359 13.157 8.60359 13.157 9.30359C13.157 10.0236 13.705 10.5106 14.489 10.5106C15.015 10.5106 15.521 10.2296 15.753 9.78359H15.772V10.4426H16.56V7.68259C16.56 6.87959 15.94 6.36559 14.969 6.36559ZM16.909 6.43759L18.355 10.4466C18.355 10.4496 18.282 10.6866 18.282 10.6936C18.157 11.1036 17.952 11.2646 17.571 11.2646C17.502 11.2646 17.365 11.2646 17.304 11.2496V11.9156C17.364 11.9266 17.571 11.9346 17.639 11.9346C18.469 11.9346 18.865 11.6226 19.207 10.6516L20.707 6.43759H19.839L18.827 9.69659H18.812L17.799 6.43659L16.909 6.43759ZM15.742 8.62659V8.94259C15.742 9.46359 15.292 9.85959 14.718 9.85959C14.276 9.85959 13.987 9.63159 13.987 9.28059C13.987 8.93859 14.265 8.72059 14.756 8.68759L15.742 8.62659Z" fill="black"/>
</svg>
