<svg width="24" height="19" viewBox="0 0 24 19" fill="none" xmlns="http://www.w3.org/2000/svg">
<g clip-path="url(#clip0_1_382)">
<path d="M15.2449 13.2551H8.75537V1.58594H15.2449V13.2551Z" fill="#6C6BBD"/>
<path d="M9.16716 7.42136C9.16716 5.05416 10.2748 2.94558 11.9998 1.58676C10.7384 0.593112 9.14625 0 7.41619 0C3.32025 0 0 3.32257 0 7.42136C0 11.5201 3.32025 14.8426 7.41619 14.8426C9.14634 14.8426 10.7384 14.2495 11.9998 13.2559C10.2748 11.897 9.16716 9.78846 9.16716 7.42136Z" fill="#D32011"/>
<path d="M23.9998 7.42136C23.9998 11.5201 20.6795 14.8426 16.5836 14.8426C14.8534 14.8426 13.2614 14.2495 11.9995 13.2559C13.725 11.897 14.8326 9.78846 14.8326 7.42136C14.8326 5.05416 13.725 2.94558 11.9995 1.58676C13.2614 0.593112 14.8535 0 16.5836 0C20.6795 0 23.9998 3.32257 23.9998 7.42136Z" fill="#0099DF"/>
<path d="M17.4408 16.5522C17.527 16.5522 17.6511 16.5687 17.7458 16.6059L17.6138 17.0098C17.5233 16.9726 17.4327 16.9603 17.346 16.9603C17.0659 16.9603 16.9258 17.1414 16.9258 17.467V18.572H16.4972V16.6017H16.9216V16.8409C17.0329 16.6677 17.1937 16.5522 17.4408 16.5522ZM15.8573 16.9933H15.1569V17.8836C15.1569 18.0813 15.2268 18.2134 15.4414 18.2134C15.5527 18.2134 15.6926 18.1762 15.82 18.1021L15.9435 18.4687C15.8078 18.5635 15.5936 18.6216 15.4083 18.6216C14.9014 18.6216 14.7246 18.3493 14.7246 17.8917V16.9933H14.3247V16.6017H14.7246V16.0039H15.1569V16.6017H15.8573V16.9933ZM10.3734 17.4138C10.4192 17.1293 10.5919 16.9354 10.8969 16.9354C11.1728 16.9354 11.35 17.1084 11.3953 17.4138H10.3734ZM11.8405 17.5869C11.8362 16.9725 11.4571 16.5522 10.9049 16.5522C10.3283 16.5522 9.92457 16.9726 9.92457 17.5868C9.92457 18.213 10.3448 18.6211 10.9342 18.6211C11.2308 18.6211 11.5024 18.547 11.7414 18.3451L11.5312 18.0276C11.3666 18.1597 11.1563 18.2338 10.9587 18.2338C10.6828 18.2338 10.4315 18.1059 10.3697 17.7516H11.832C11.8362 17.6978 11.8405 17.6444 11.8405 17.5869ZM13.723 17.1047C13.6037 17.0301 13.3608 16.9353 13.1094 16.9353C12.8746 16.9353 12.7345 17.0221 12.7345 17.1665C12.7345 17.2981 12.8827 17.3353 13.068 17.3599L13.2698 17.3887C13.6985 17.451 13.9578 17.6322 13.9578 17.9785C13.9578 18.3536 13.6282 18.6216 13.0599 18.6216C12.7384 18.6216 12.4418 18.539 12.2068 18.3658L12.4088 18.0318C12.553 18.1432 12.7676 18.238 13.0642 18.238C13.3566 18.238 13.5131 18.1517 13.5131 17.9988C13.5131 17.8879 13.4018 17.8256 13.167 17.7931L12.9652 17.7643C12.5243 17.702 12.2852 17.5043 12.2852 17.183C12.2852 16.7914 12.6068 16.5522 13.1052 16.5522C13.4183 16.5522 13.7027 16.6225 13.9083 16.7584L13.723 17.1047ZM19.0068 16.9593C18.9187 16.9593 18.8371 16.9749 18.7612 17.0056C18.6877 17.0354 18.6209 17.0797 18.5649 17.1358C18.5086 17.1933 18.4644 17.2615 18.4348 17.3364C18.4032 17.4142 18.3877 17.5001 18.3877 17.5935C18.3877 17.6874 18.4032 17.7727 18.4348 17.8506C18.4664 17.9284 18.5098 17.9955 18.5649 18.0511C18.6209 18.1073 18.6877 18.1516 18.7612 18.1813C18.8371 18.2125 18.9187 18.2276 19.0068 18.2276C19.0949 18.2276 19.177 18.2126 19.2524 18.1813C19.3262 18.1517 19.3933 18.1074 19.4496 18.0511C19.5057 17.9955 19.5491 17.9284 19.5812 17.8506C19.6128 17.7727 19.6283 17.6874 19.6283 17.5935C19.6283 17.5001 19.6128 17.4142 19.5812 17.3364C19.5491 17.2585 19.5057 17.1915 19.4496 17.1358C19.3933 17.0796 19.3263 17.0353 19.2525 17.0056C19.1744 16.9744 19.091 16.9587 19.0069 16.9594L19.0068 16.9593ZM19.0068 16.5522C19.1596 16.5522 19.3011 16.5786 19.4312 16.6319C19.557 16.682 19.6718 16.7564 19.7689 16.8508C19.8645 16.9446 19.9403 17.0565 19.9919 17.1801C20.0456 17.3071 20.0725 17.4449 20.0725 17.5935C20.0725 17.7421 20.0456 17.8799 19.9919 18.0068C19.9403 18.1305 19.8644 18.2427 19.7688 18.3366C19.6741 18.4295 19.5613 18.5022 19.4313 18.5555C19.301 18.6084 19.1596 18.6348 19.0068 18.6348C18.854 18.6348 18.7125 18.6084 18.5824 18.5555C18.4523 18.5022 18.3405 18.4295 18.2462 18.3366C18.1511 18.2424 18.0756 18.1303 18.024 18.0068C17.9703 17.8799 17.9434 17.7421 17.9434 17.5935C17.9434 17.4449 17.9703 17.3071 18.024 17.1802C18.0756 17.0568 18.1512 16.9449 18.2462 16.8508C18.3426 16.7563 18.4569 16.6819 18.5824 16.6319C18.7125 16.5786 18.854 16.5522 19.0068 16.5522ZM7.8705 17.5868C7.8705 17.2406 8.09738 16.9561 8.46797 16.9561C8.82216 16.9561 9.06122 17.2283 9.06122 17.5869C9.06122 17.9454 8.82216 18.2173 8.46797 18.2173C8.09738 18.2173 7.8705 17.9331 7.8705 17.5868ZM9.46491 17.5868V16.6017H9.03666V16.8409C8.90044 16.6635 8.69485 16.5522 8.41472 16.5522C7.86253 16.5522 7.43007 16.9848 7.43007 17.5868C7.43007 18.1885 7.86253 18.6216 8.41472 18.6216C8.69485 18.6216 8.90035 18.5102 9.03666 18.3328V18.572H9.46491V17.5868ZM7.05085 18.5721V17.3355C7.05085 16.8698 6.75422 16.5565 6.27657 16.5523C6.02522 16.5481 5.76535 16.6264 5.58432 16.9028C5.44847 16.6843 5.23397 16.5523 4.93313 16.5523C4.72322 16.5523 4.51716 16.6141 4.35638 16.8448V16.6018H3.92822V18.5721H4.3606V17.4799C4.3606 17.1378 4.55016 16.9562 4.84247 16.9562C5.12691 16.9562 5.27119 17.1415 5.27119 17.4757V18.5721H5.70366V17.4798C5.70366 17.1377 5.90166 16.9561 6.18553 16.9561C6.47841 16.9561 6.61847 17.1414 6.61847 17.4756V18.5721H7.05085Z" fill="#110F0D"/>
</g>
<defs>
<clipPath id="clip0_1_382">
<rect width="24" height="18.6667" fill="white"/>
</clipPath>
</defs>
</svg>
