<svg width="24" height="19" viewBox="0 0 24 19" fill="none" xmlns="http://www.w3.org/2000/svg">
<g clip-path="url(#clip0_1_387)">
<path d="M4.36323 18.5644V17.3296C4.36323 16.8562 4.07504 16.5475 3.58107 16.5475C3.33414 16.5475 3.06657 16.6299 2.88132 16.8974C2.73732 16.671 2.53154 16.5475 2.22282 16.5475C2.01695 16.5475 1.81126 16.6092 1.64654 16.8356V16.5887H1.21436V18.5644H1.64654V17.4736C1.64654 17.1238 1.83179 16.9591 2.11998 16.9591C2.40798 16.9591 2.55217 17.1444 2.55217 17.4736V18.5644H2.98436V17.4736C2.98436 17.1238 3.19004 16.9591 3.45761 16.9591C3.74579 16.9591 3.88979 17.1444 3.88979 17.4736V18.5644H4.36323ZM10.7636 16.5887H10.064V15.9919H9.63179V16.5887H9.24076V16.9796H9.6317V17.8853C9.6317 18.3381 9.81695 18.6055 10.3109 18.6055C10.4962 18.6055 10.7019 18.5439 10.846 18.4615L10.7225 18.091C10.599 18.1734 10.455 18.194 10.3521 18.194C10.1463 18.194 10.064 18.0705 10.064 17.8646V16.9796H10.7636V16.5887ZM14.427 16.5475C14.1801 16.5475 14.0155 16.671 13.9125 16.8356V16.5887H13.4803V18.5644H13.9125V17.4531C13.9125 17.1238 14.0565 16.9386 14.3241 16.9386C14.4064 16.9386 14.5093 16.9592 14.5916 16.9797L14.7151 16.5682C14.6328 16.5475 14.5093 16.5475 14.427 16.5475V16.5475ZM8.89089 16.7533C8.68501 16.6092 8.39692 16.5475 8.0882 16.5475C7.59432 16.5475 7.26507 16.7945 7.26507 17.1855C7.26507 17.5149 7.51201 17.7 7.9442 17.7618L8.14998 17.7824C8.37639 17.8235 8.49986 17.8853 8.49986 17.9882C8.49986 18.1322 8.33523 18.2351 8.04704 18.2351C7.75895 18.2351 7.53254 18.1322 7.38845 18.0294L7.18267 18.3586C7.40907 18.5232 7.71779 18.6055 8.02642 18.6055C8.6027 18.6055 8.93204 18.3381 8.93204 17.9676C8.93204 17.6177 8.66448 17.4325 8.25282 17.3708L8.04704 17.3501C7.86179 17.3295 7.71779 17.2885 7.71779 17.165C7.71779 17.0209 7.86179 16.9386 8.0882 16.9386C8.33523 16.9386 8.58217 17.0414 8.70564 17.1032L8.89089 16.7533ZM20.3748 16.5475C20.1278 16.5475 19.9631 16.671 19.8602 16.8356V16.5887H19.428V18.5644H19.8602V17.4531C19.8602 17.1238 20.0043 16.9386 20.2718 16.9386C20.3542 16.9386 20.4571 16.9592 20.5394 16.9797L20.6629 16.5682C20.5806 16.5475 20.4571 16.5475 20.3748 16.5475ZM14.8592 17.5765C14.8592 18.1734 15.2708 18.6055 15.9088 18.6055C16.1969 18.6055 16.4027 18.5439 16.6085 18.3792L16.4027 18.0294C16.2381 18.1528 16.0735 18.2145 15.8882 18.2145C15.5383 18.2145 15.2914 17.9676 15.2914 17.5765C15.2914 17.2061 15.5383 16.9591 15.8882 16.9386C16.0735 16.9386 16.2381 17.0003 16.4027 17.1238L16.6085 16.774C16.4027 16.6092 16.1969 16.5475 15.9088 16.5475C15.2708 16.5475 14.8592 16.9797 14.8592 17.5765ZM18.8518 17.5765V16.5887H18.4196V16.8356C18.2755 16.6505 18.0698 16.5475 17.8022 16.5475C17.2465 16.5475 16.8144 16.9797 16.8144 17.5765C16.8144 18.1734 17.2465 18.6055 17.8022 18.6055C18.0903 18.6055 18.2962 18.5027 18.4196 18.3175V18.5644H18.8518V17.5765ZM17.2671 17.5765C17.2671 17.2267 17.4935 16.9386 17.8639 16.9386C18.2138 16.9386 18.4608 17.2061 18.4608 17.5765C18.4608 17.9264 18.2138 18.2145 17.8639 18.2145C17.4935 18.1939 17.2671 17.9264 17.2671 17.5765ZM12.1014 16.5475C11.5252 16.5475 11.1135 16.9591 11.1135 17.5765C11.1135 18.194 11.5251 18.6055 12.122 18.6055C12.4101 18.6055 12.6983 18.5232 12.9247 18.3381L12.7188 18.0294C12.5542 18.1528 12.3484 18.2351 12.1426 18.2351C11.875 18.2351 11.6075 18.1117 11.5457 17.7617H13.007V17.5972C13.0276 16.9591 12.6572 16.5475 12.1014 16.5475ZM12.1014 16.918C12.3689 16.918 12.5543 17.0827 12.5953 17.3914H11.5663C11.6075 17.1238 11.7927 16.918 12.1014 16.918ZM22.8238 17.5765V15.8066H22.3916V16.8356C22.2475 16.6505 22.0418 16.5475 21.7742 16.5475C21.2185 16.5475 20.7864 16.9797 20.7864 17.5765C20.7864 18.1734 21.2185 18.6055 21.7742 18.6055C22.0624 18.6055 22.2682 18.5027 22.3916 18.3175V18.5644H22.8238V17.5765ZM21.2392 17.5765C21.2392 17.2267 21.4655 16.9386 21.836 16.9386C22.1859 16.9386 22.4328 17.2061 22.4328 17.5765C22.4328 17.9264 22.1859 18.2145 21.836 18.2145C21.4655 18.1939 21.2392 17.9264 21.2392 17.5765ZM6.79164 17.5765V16.5887H6.35945V16.8356C6.21536 16.6505 6.00957 16.5475 5.74201 16.5475C5.18636 16.5475 4.75417 16.9797 4.75417 17.5765C4.75417 18.1734 5.18636 18.6055 5.74201 18.6055C6.0302 18.6055 6.23598 18.5027 6.35945 18.3175V18.5644H6.79164V17.5765ZM5.18636 17.5765C5.18636 17.2267 5.41276 16.9386 5.78317 16.9386C6.13304 16.9386 6.38007 17.2061 6.38007 17.5765C6.38007 17.9264 6.13304 18.2145 5.78317 18.2145C5.41276 18.1939 5.18636 17.9264 5.18636 17.5765Z" fill="black"/>
<path d="M8.74658 1.58398H15.2294V13.2325H8.74658V1.58398Z" fill="#FF5F00"/>
<path d="M9.15834 7.40897C9.15834 5.04225 10.2697 2.943 11.9778 1.58466C10.7225 0.596812 9.13781 0 7.40906 0C3.31341 0 0 3.31341 0 7.40897C0 11.5044 3.31341 14.8179 7.40897 14.8179C9.13772 14.8179 10.7224 14.2211 11.9778 13.2332C10.2697 11.8955 9.15834 9.77569 9.15834 7.40897Z" fill="#EB001B"/>
<path d="M23.9763 7.40897C23.9763 11.5044 20.6629 14.8179 16.5673 14.8179C14.8386 14.8179 13.2539 14.2211 11.9985 13.2332C13.7273 11.8749 14.8181 9.77569 14.8181 7.40897C14.8181 5.04225 13.7067 2.943 11.9985 1.58466C13.2538 0.596812 14.8386 0 16.5673 0C20.6629 0 23.9763 3.33403 23.9763 7.40897Z" fill="#F79E1B"/>
</g>
<defs>
<clipPath id="clip0_1_387">
<rect width="24" height="18.6562" fill="white"/>
</clipPath>
</defs>
</svg>
