<svg width="16" height="19" viewBox="0 0 16 19" fill="none" xmlns="http://www.w3.org/2000/svg">
<g clip-path="url(#clip0_1_392)">
<path d="M13.5728 1.47836C12.7019 0.479162 11.1276 0.0507812 9.11371 0.0507812H3.26871C3.06945 0.0507887 2.87672 0.122348 2.72519 0.252595C2.57366 0.382841 2.47325 0.56323 2.44202 0.761331L0.00826875 16.299C-0.0401063 16.6054 0.195581 16.8828 0.504081 16.8828H4.11258L5.01883 11.0966L4.99071 11.2778C5.05527 10.8688 5.40277 10.5671 5.81427 10.5671H7.52902C10.8976 10.5671 13.5353 9.18978 14.3058 5.20551C14.3287 5.08767 14.3485 4.97298 14.3656 4.86093C14.2684 4.80909 14.2684 4.80909 14.3656 4.86093C14.5951 3.3883 14.3641 2.38589 13.5728 1.47836Z" fill="#27346A"/>
<path d="M6.39958 4.33044C6.49823 4.28315 6.60613 4.25865 6.71539 4.25871H11.2978C11.8404 4.25871 12.3465 4.29426 12.809 4.36919C12.9384 4.38996 13.0672 4.41476 13.1951 4.44356C13.3764 4.48382 13.5555 4.5331 13.732 4.59122C13.9593 4.66766 14.1711 4.75668 14.3657 4.86093C14.5951 3.38774 14.3641 2.38589 13.5728 1.47836C12.7014 0.479162 11.1276 0.0507812 9.11371 0.0507812H3.26821C2.85664 0.0507812 2.50652 0.35239 2.44202 0.761331L0.00826909 16.2984C-0.0401059 16.6053 0.195582 16.8824 0.503582 16.8824H4.11258L5.99277 4.8803C6.01126 4.76233 6.05794 4.65065 6.12881 4.55487C6.19967 4.45908 6.2926 4.38206 6.39958 4.33044Z" fill="#27346A"/>
<path d="M14.3059 5.20591C13.5354 9.18962 10.8978 10.5675 7.52908 10.5675H5.81383C5.40233 10.5675 5.05477 10.8692 4.99083 11.2782L3.86339 18.4727C3.82127 18.7408 4.02727 18.9838 4.29677 18.9838H7.33864C7.51289 18.9838 7.68141 18.9211 7.81388 18.8072C7.94636 18.6932 8.0341 18.5355 8.06133 18.3622L8.09095 18.2062L8.66427 14.5486L8.7012 14.3465C8.72843 14.1732 8.81617 14.0155 8.94863 13.9015C9.08109 13.7876 9.24959 13.725 9.42383 13.7249H9.87908C12.8258 13.7249 15.1331 12.5198 15.8073 9.03466C16.0888 7.5782 15.9431 6.3622 15.1986 5.50808C14.9728 5.24938 14.6924 5.03573 14.3657 4.86133C14.348 4.97394 14.3288 5.08807 14.3059 5.20591Z" fill="#2790C3"/>
<path d="M13.5593 4.53841C13.4391 4.5031 13.3179 4.47183 13.1956 4.44467C13.0677 4.41635 12.9389 4.39172 12.8096 4.37081C12.3466 4.29538 11.8408 4.25977 11.2977 4.25977H6.7159C6.60655 4.25952 6.49857 4.28423 6.40009 4.33206C6.29298 4.38352 6.19995 4.4605 6.12905 4.55631C6.05816 4.65212 6.01153 4.76388 5.99321 4.88192L5.01934 11.0977L4.99121 11.2789C5.05527 10.8699 5.40277 10.5682 5.81434 10.5682H7.52959C10.8982 10.5682 13.5358 9.1909 14.3063 5.20662C14.3293 5.08878 14.3485 4.9746 14.3662 4.86204C14.1711 4.75836 13.9599 4.66877 13.7325 4.59283C13.6751 4.57368 13.6174 4.55554 13.5593 4.53841" fill="#1F264F"/>
</g>
<defs>
<clipPath id="clip0_1_392">
<rect width="16" height="19" fill="white"/>
</clipPath>
</defs>
</svg>
