<svg width="30" height="10" viewBox="0 0 30 10" fill="none" xmlns="http://www.w3.org/2000/svg">
<g clip-path="url(#clip0_1_397)">
<path d="M15.5153 3.18503C15.4982 4.5725 16.718 5.34672 17.6368 5.80708C18.5809 6.27937 18.898 6.58226 18.8943 7.00467C18.8872 7.65106 18.1412 7.93636 17.4431 7.94744C16.2252 7.96684 15.517 7.60937 14.9541 7.33901L14.5153 9.44973C15.0802 9.71732 16.1261 9.9507 17.2106 9.96094C19.7565 9.96094 21.4221 8.66889 21.4311 6.66564C21.4411 4.12323 18.0107 3.9825 18.0341 2.84612C18.0422 2.50154 18.362 2.13383 19.0628 2.04034C19.4096 1.99311 20.3672 1.95696 21.4528 2.47094L21.8789 0.428769C21.2951 0.210215 20.5447 0.000937462 19.6105 0.000937462C17.2143 0.000937462 15.5289 1.31058 15.5153 3.18503ZM25.9732 0.176841C25.5083 0.176841 25.1166 0.455636 24.9417 0.883467L21.305 9.81094H23.8491L24.3553 8.3725H27.4641L27.7577 9.81094H30L28.0433 0.176841H25.9732ZM26.3291 2.77937L27.0633 6.39708H25.0526L26.3291 2.77937ZM12.4308 0.176961L10.4255 9.81082H12.8497L14.8541 0.176721H12.4308M8.84449 0.176721L6.32121 6.73419L5.30051 1.15865C5.18074 0.536239 4.70777 0.176841 4.18254 0.176841H0.0577734L0 0.4566C0.846797 0.645515 1.80891 0.950214 2.3918 1.27624C2.74852 1.4754 2.85023 1.64949 2.96742 2.12274L4.90066 9.81094H7.4625L11.3902 0.176841L8.84449 0.176721Z" fill="url(#paint0_linear_1_397)"/>
</g>
<defs>
<linearGradient id="paint0_linear_1_397" x1="1379.22" y1="29.9407" x2="1408.86" y2="-992.92" gradientUnits="userSpaceOnUse">
<stop stop-color="#222357"/>
<stop offset="1" stop-color="#254AA5"/>
</linearGradient>
<clipPath id="clip0_1_397">
<rect width="30" height="10" fill="white"/>
</clipPath>
</defs>
</svg>
