<svg width="44" height="44" viewBox="0 0 44 44" fill="none" xmlns="http://www.w3.org/2000/svg">
<path d="M34.5592 17.2332L26.7676 9.44154L29.3801 6.82904C30.0829 6.12626 30.9464 5.77487 31.9706 5.77487C32.9948 5.77487 33.8577 6.12626 34.5592 6.82904L37.1717 9.44154C37.8745 10.1443 38.2259 11.0078 38.2259 12.032C38.2259 13.0563 37.8745 13.9191 37.1717 14.6207L34.5592 17.2332ZM5.50091 38.4999V30.7082L13.7509 22.4582L4.08008 12.6957L12.7426 4.0332L22.4592 13.7957L26.7676 9.44154L34.5592 17.2332L30.2509 21.5415L39.9217 31.304L31.3051 39.9207L21.5426 30.204L13.2926 38.4999H5.50091ZM16.3634 19.8457L19.8467 16.3624L17.6467 14.1624L15.4467 16.3165L12.8801 13.7499L15.0342 11.5499L12.6967 9.2582L9.25925 12.7415L16.3634 19.8457ZM31.2592 34.7415L34.7426 31.2582L32.4051 28.9665L30.2509 31.1207L27.6384 28.554L29.8384 26.354L27.5926 24.154L24.1092 27.6374L31.2592 34.7415ZM9.16758 34.8332H11.7342L29.3801 17.2332L26.7676 14.6207L9.16758 32.2665V34.8332Z" fill="#1F1F1F"/>
</svg>
