<svg width="44" height="44" viewBox="0 0 44 44" fill="none" xmlns="http://www.w3.org/2000/svg">
<g clip-path="url(#clip0_1_1033)">
<g filter="url(#filter0_d_1_1033)">
<mask id="mask0_1_1033" style="mask-type:luminance" maskUnits="userSpaceOnUse" x="1" y="5" width="42" height="38">
<path d="M18.3327 30.2497L23.8327 32.083C23.8327 32.083 37.5827 29.333 39.416 29.333C41.2493 29.333 41.2493 31.1663 39.416 32.9997C37.5827 34.833 31.166 40.333 25.666 40.333C20.166 40.333 16.4993 37.583 12.8327 37.583H3.66602" stroke="white" stroke-width="4" stroke-linecap="round" stroke-linejoin="round"/>
<path d="M3.66602 26.583C5.49935 24.7497 9.16602 21.9997 12.8327 21.9997C16.4993 21.9997 25.2077 25.6663 26.5827 27.4997C27.9577 29.333 23.8327 32.083 23.8327 32.083M14.666 16.4997V9.16634C14.666 8.68011 14.8592 8.2138 15.203 7.86998C15.5468 7.52616 16.0131 7.33301 16.4993 7.33301H38.4993C38.9856 7.33301 39.4519 7.52616 39.7957 7.86998C40.1395 8.2138 40.3327 8.68011 40.3327 9.16634V23.833" stroke="white" stroke-width="4" stroke-linecap="round" stroke-linejoin="round"/>
<path d="M22.916 7.33301H32.0827V15.583H22.916V7.33301Z" fill="white" stroke="white" stroke-width="4" stroke-linecap="round" stroke-linejoin="round"/>
</mask>
<g mask="url(#mask0_1_1033)">
<path d="M0 0H44V44H0V0Z" fill="#1F1F1F"/>
</g>
</g>
</g>
<defs>
<filter id="filter0_d_1_1033" x="-2.33398" y="5.33301" width="49.125" height="45" filterUnits="userSpaceOnUse" color-interpolation-filters="sRGB">
<feFlood flood-opacity="0" result="BackgroundImageFix"/>
<feColorMatrix in="SourceAlpha" type="matrix" values="0 0 0 0 0 0 0 0 0 0 0 0 0 0 0 0 0 0 127 0" result="hardAlpha"/>
<feOffset dy="4"/>
<feGaussianBlur stdDeviation="2"/>
<feComposite in2="hardAlpha" operator="out"/>
<feColorMatrix type="matrix" values="0 0 0 0 0 0 0 0 0 0 0 0 0 0 0 0 0 0 0.25 0"/>
<feBlend mode="normal" in2="BackgroundImageFix" result="effect1_dropShadow_1_1033"/>
<feBlend mode="normal" in="SourceGraphic" in2="effect1_dropShadow_1_1033" result="shape"/>
</filter>
<clipPath id="clip0_1_1033">
<rect width="44" height="44" fill="white"/>
</clipPath>
</defs>
</svg>
