<svg width="34" height="24" viewBox="0 0 34 24" fill="none" xmlns="http://www.w3.org/2000/svg">
  <path fill="#fff" d="M0 0h34v24H0z"/>
  <path d="M16.7 4.764a1 1 0 11-1.042 1.707A1 1 0 0116.7 4.764zm1.775 1.374a1 1 0 111.707-1.041 1 1 0 01-1.707 1.04zm-2.296 5.863a1 1 0 100-2 1 1 0 000 2zm0 8a1 1 0 100-2 1 1 0 000 2zm4.15-9a1 1 0 11-2 0 1 1 0 012 0zm2.151 1a1 1 0 100-2 1 1 0 000 2zm-2.151 7a1 1 0 11-2 0 1 1 0 012 0zm2.151 1a1 1 0 100-2 1 1 0 000 2zm4.149-9a1 1 0 11-2 0 1 1 0 012 0zm-1.496 7.297a1 1 0 100-2 1 1 0 000 2zm1.619-4.148a1 1 0 11-2 0 1 1 0 012 0zm-6.734-5.344a1 1 0 111.708-1.041 1 1 0 01-1.708 1.04zM15.08 7.431a1 1 0 11-1.042 1.708 1 1 0 011.041-1.708zM7.248 9.996h6.781v10h-1.938a3 3 0 01-2.91-2.272L7.247 9.996z" fill="#111"/>
</svg>
